<svg width="1353" height="453" viewBox="0 0 1353 453" fill="none" xmlns="http://www.w3.org/2000/svg">
<path d="M61.2478 385L136.234 189.868H153.517L228.504 385H208.154L173.588 293.567H110.31L81.5972 385H61.2478ZM138.186 204.364L112.261 286.876H171.079L139.858 204.364H138.186ZM340.408 292.452V285.761H410.935V361.584C402.386 370.133 391.886 376.823 379.435 381.655C367.169 386.487 353.417 388.903 338.178 388.903C322.568 388.903 308.165 386.394 294.971 381.376C281.776 376.173 270.254 369.018 260.404 359.912C250.555 350.62 242.842 339.841 237.267 327.575C231.878 315.31 229.183 301.93 229.183 287.434C229.183 272.938 231.878 259.558 237.267 247.293C242.842 235.027 250.555 224.341 260.404 215.235C270.254 205.943 281.776 198.788 294.971 193.771C308.165 188.567 322.568 185.965 338.178 185.965C344.869 185.965 352.116 186.43 359.922 187.359C367.913 188.288 375.532 189.589 382.78 191.262C390.028 192.749 396.16 194.607 401.178 196.837L399.784 212.448H398.112C390.678 205.943 381.758 201.018 371.351 197.673C360.944 194.328 349.886 192.656 338.178 192.656C320.709 192.656 305.378 196.651 292.183 204.642C278.988 212.448 268.674 223.505 261.241 237.815C253.993 251.939 250.369 268.478 250.369 287.434C250.369 306.39 253.993 323.022 261.241 337.332C268.674 351.456 278.988 362.513 292.183 370.504C305.378 378.31 320.709 382.212 338.178 382.212C348.957 382.212 358.9 380.726 368.006 377.752C377.298 374.779 385.289 370.504 391.979 364.929V292.452H340.408ZM447.182 189.868H484.536C504.235 189.868 519.474 194.049 530.253 202.412C541.217 210.589 546.7 222.111 546.7 236.978C546.7 248.501 543.262 258.071 536.385 265.691C529.695 273.31 519.939 278.421 507.116 281.023V282.695C519.381 285.111 529.416 290.872 537.222 299.978C545.027 309.084 550.881 320.328 554.784 333.708C558.315 345.974 561.753 355.544 565.098 362.42C568.629 369.111 572.438 373.943 576.527 376.916C580.801 379.889 585.819 382.027 591.58 383.327V385H580.151C571.974 385 565.191 383.513 559.801 380.54C554.598 377.566 550.138 372.549 546.421 365.487C542.704 358.425 539.173 348.668 535.828 336.217C530.439 317.075 523.284 303.509 514.363 295.518C505.443 287.527 494.571 283.531 481.749 283.531H480.076V278.514H481.749C511.669 278.514 526.629 264.762 526.629 237.257C526.629 210.125 512.598 196.558 484.536 196.558H466.138V385H447.182V189.868ZM578.777 287.434C578.777 273.124 581.285 259.837 586.303 247.571C591.507 235.12 598.661 224.341 607.768 215.235C617.06 205.943 627.838 198.788 640.104 193.771C652.555 188.567 665.936 185.965 680.245 185.965C694.555 185.965 707.842 188.567 720.108 193.771C732.559 198.788 743.338 205.943 752.444 215.235C761.736 224.341 768.891 235.12 773.909 247.571C779.112 259.837 781.714 273.124 781.714 287.434C781.714 301.744 779.112 315.124 773.909 327.575C768.891 339.841 761.736 350.62 752.444 359.912C743.338 369.018 732.559 376.173 720.108 381.376C707.842 386.394 694.555 388.903 680.245 388.903C665.936 388.903 652.555 386.394 640.104 381.376C627.838 376.173 617.06 369.018 607.768 359.912C598.661 350.62 591.507 339.841 586.303 327.575C581.285 315.124 578.777 301.744 578.777 287.434ZM599.962 287.434C599.962 306.39 603.307 323.022 609.998 337.332C616.688 351.456 626.073 362.513 638.152 370.504C650.232 378.31 664.263 382.212 680.245 382.212C696.227 382.212 710.258 378.31 722.338 370.504C734.418 362.513 743.803 351.363 750.493 337.053C757.183 322.744 760.528 306.204 760.528 287.434C760.528 268.664 757.183 252.217 750.493 238.093C743.803 223.784 734.418 212.633 722.338 204.642C710.258 196.651 696.227 192.656 680.245 192.656C664.263 192.656 650.232 196.651 638.152 204.642C626.259 212.448 616.874 223.505 609.998 237.815C603.307 251.939 599.962 268.478 599.962 287.434ZM795.288 378.867L796.961 362.142H798.633C805.881 368.46 814.058 373.385 823.164 376.916C832.27 380.447 841.284 382.212 850.204 382.212C862.841 382.212 873.062 378.774 880.868 371.898C888.673 364.836 892.575 355.451 892.575 343.744C892.575 337.239 891.089 331.199 888.115 325.624C885.328 320.049 880.589 314.381 873.899 308.62C867.394 302.859 858.381 296.633 846.859 289.943C838.868 285.297 831.248 280.465 824 275.447C816.753 270.244 810.806 264.297 806.16 257.607C801.514 250.731 799.191 242.554 799.191 233.076C799.191 218.952 804.301 207.616 814.523 199.067C824.744 190.333 838.217 185.965 854.943 185.965C862.376 185.965 870.368 186.802 878.916 188.474C887.465 189.961 894.062 191.912 898.708 194.328L897.314 209.939H895.642C885.049 198.417 871.483 192.656 854.943 192.656C843.049 192.656 833.478 195.722 826.231 201.855C818.983 207.802 815.359 215.886 815.359 226.107C815.359 233.726 817.31 240.324 821.213 245.899C825.301 251.288 830.505 256.213 836.823 260.673C843.142 264.947 849.925 269.129 857.173 273.217C865.536 278.049 873.62 283.16 881.425 288.549C889.416 293.938 895.921 300.443 900.938 308.062C906.142 315.496 908.744 324.881 908.744 336.217C908.744 346.624 906.328 355.823 901.496 363.814C896.664 371.62 889.788 377.752 880.868 382.212C872.133 386.673 861.912 388.903 850.204 388.903C842.77 388.903 834.036 387.973 824 386.115C813.965 384.257 804.394 381.841 795.288 378.867ZM906.783 385L981.77 189.868H999.053L1074.04 385H1053.69L1019.12 293.567H955.845L927.133 385H906.783ZM983.721 204.364L957.797 286.876H1016.61L985.394 204.364H983.721ZM1116.59 385V302.487L1047.45 189.868H1068.64L1130.8 291.894H1132.48L1182.1 189.868H1203.28L1136.66 298.584V385H1116.59ZM1218.94 385V189.868H1303.97V203.527L1255.18 197.116C1246.63 196.001 1240.87 195.443 1237.9 195.443V280.465C1240.32 280.465 1246.08 280.186 1255.18 279.629L1300.9 276.841V289.664L1255.18 286.876C1246.08 286.319 1240.32 286.04 1237.9 286.04V379.425C1241.25 379.425 1247.1 378.867 1255.46 377.752L1304.8 371.341V385H1218.94Z" fill="#533E0B"/>
<path d="M875.407 296.173C876.245 294.995 876.532 293.768 876.346 292.814C872.658 286.231 862.756 281.545 856.172 274.97C848.604 268.385 842.681 260.077 834.295 252.56C833.291 251.787 832.23 251.064 831 250.5C832.121 249.736 833.486 249.187 834.921 248.821C848.393 246.098 860.89 251.95 869.866 259.925C874.19 263.878 877.817 268.652 880.339 274.453C882.411 279.931 885.592 288.104 879.783 294.744C878.395 295.924 876.829 296.237 875.407 296.173Z" fill="#0D5741"/>
<path d="M871.12 299.769C870.528 299.761 870.007 299.82 869.575 299.951C869.068 300.024 868.604 300.238 868.701 300.577C868.759 300.663 868.817 300.769 869.097 300.795C869.351 300.824 869.709 300.74 869.992 300.576C870.534 300.28 870.757 299.907 870.922 299.896C871.257 299.771 871.548 299.975 871.891 300.209C872.559 300.639 873.285 301.235 874.005 301.846C875.447 303.073 876.819 304.331 878.083 305.731C880.602 308.49 882.628 311.601 884.011 315.045C886.663 322.209 888.171 331.14 882.879 340.986C882.205 341.956 881.126 343.023 880 343C880.218 341.936 879.61 341.247 879.108 340.593C873.528 335.002 867.819 329.725 865.134 322.632C863.792 319.288 863.003 315.596 862.907 311.522C862.854 309.458 862.994 307.38 863.357 305.046C863.541 303.866 863.784 302.658 864.189 301.35C864.393 300.589 864.601 299.95 865.077 298.902C865.29 298.54 865.718 297.563 866.553 297.014C867.001 296.691 867.557 296.498 868.046 296.47C868.168 296.462 868.287 296.463 868.401 296.47C868.503 296.479 868.573 296.496 868.655 296.513C868.812 296.549 868.956 296.598 869.089 296.654C870.794 297.622 870.681 298.672 871.12 299.769Z" fill="#0D5741"/>
<path d="M138.756 198.715C139.746 197.598 140.811 196.813 141.862 196.27C145.405 194.585 148.164 195.267 151.077 195.029C153.99 194.9 157.007 194.46 160.163 193.417C168.924 190.332 179.206 182.096 186.973 173.501C188.558 171.585 189.969 169.459 190.415 167.104C190.638 165.954 190.636 164.812 190.426 163.668C190.306 164.825 190.038 165.876 189.595 166.846C188.702 168.822 187.064 170.302 185.118 171.144C175.6 174.7 164.294 169.146 153.387 172.853C149.548 174.132 145.666 176.277 142.175 179.883C138.796 183.32 135.605 189.185 136.818 194.581C137.159 196.162 137.85 197.533 138.756 198.715Z" fill="#0D5741"/>
<path d="M138.051 197.499C139.535 197.999 140.922 198.527 142.222 199.061C150.284 202.479 155.165 205.526 160.2 206.814C167.6 208.646 179.663 209.175 186.431 219.747C187.576 221.539 188.372 223.472 189.037 225.485C189.41 226.622 189.732 227.72 190.061 228.9C190.087 227.675 190.049 226.519 189.96 225.303C189.803 223.145 189.525 221.018 189.264 218.762C188.674 206.88 181.605 189.242 166.052 185.214C156.917 182.677 146.535 185.863 140.541 193.541C139.58 194.764 138.737 196.092 138.051 197.499Z" fill="#0D5741"/>
<path d="M79.9791 386.7C81.1218 385.947 82.498 385.407 83.4808 384.795C83.6448 384.691 83.8115 384.591 83.9807 384.493C91.1522 380.402 100.384 382.698 104.94 379.488C113.412 373.756 121.357 360.096 134.666 355.41C136.456 354.799 138.322 354.534 140.178 354.423C141.443 354.348 142.719 354.345 143.987 354.355C142.785 353.947 141.517 353.66 140.242 353.423C138.368 353.072 136.449 352.819 134.501 352.414C120.679 349.551 102.248 345.67 88.2062 355.066C80.6573 360.2 78.6638 372.854 78.9813 381.921C78.9841 382.146 78.9879 382.37 78.9924 382.591C79.02 383.924 79.5423 385.412 79.9791 386.7Z" fill="#0D5741"/>
<path d="M81.2604 386.618C80.759 385.301 80.4316 383.935 80.189 382.606C79.9817 381.454 79.8253 380.313 79.6696 379.249C78.6854 372.695 81.828 366.177 80.8711 360.856C79.0707 350.083 72.9702 337.347 74.7074 323.954C74.9677 322.106 75.457 320.292 76.074 318.536C76.4957 317.339 76.9833 316.157 77.5047 315C76.6462 315.935 75.8486 316.965 75.0957 318.027C73.9877 319.586 72.9608 321.24 71.9002 322.896C64.5341 334.515 56.6616 349.219 59.1978 364.633C60.517 372.22 67.6569 378.518 73.7919 383.05C74.822 383.82 75.976 384.504 77.1521 385.062C78.5092 385.712 79.9114 386.217 81.2604 386.618Z" fill="#096B0E"/>
<path d="M87.6698 383.425C86.6673 383.341 85.6868 383.129 84.7568 382.874C83.9514 382.651 83.1692 382.399 82.4359 382.17C77.9142 380.776 74.6928 376.738 70.9727 375.708C63.4838 373.534 53.4022 373.521 45.322 368.261C44.2135 367.522 43.1976 366.646 42.2581 365.706C41.6186 365.064 41.0086 364.385 40.4255 363.691C40.7617 364.533 41.1776 365.365 41.6281 366.178C42.2889 367.373 43.0353 368.545 43.7729 369.74C48.9707 378.073 55.9975 387.687 66.6997 390.822C71.9896 392.32 78.2504 389.673 83.0641 387.128C83.8781 386.703 84.6753 386.172 85.3978 385.588C86.2356 384.915 86.9942 384.169 87.6698 383.425Z" fill="#0D5741"/>
<path d="M59.2945 217.922C59.8431 218.896 60.3918 219.87 60.9405 220.843C60.398 219.866 60.1304 219.375 60.1368 219.372C61.209 218.769 62.296 218.303 63.4168 217.942C65.4115 217.293 67.4705 216.993 69.4786 216.965C79.7382 216.856 85.5414 225.219 91.6752 229.508C97.8757 234.03 108.46 236.867 113.934 244.972C114.088 245.272 114.218 245.523 114.319 245.861C114.565 246.574 114.495 247.524 113.596 247.831C114.069 247.837 114.503 247.628 114.8 247.189C114.931 247.005 115.039 246.785 115.123 246.534C115.205 246.29 115.264 246.094 115.319 245.844C115.402 245.421 115.455 245.09 115.484 244.689C115.298 233.887 111.469 221.651 101.979 214.749C92.3291 207.818 77.8463 210.043 68.933 214.617C66.9617 215.513 65.1003 216.538 63.2593 217.586C62.2264 218.178 61.2089 218.769 60.1368 219.372C60.1304 219.375 59.8499 218.892 59.2945 217.922Z" fill="#096B0E"/>
<path d="M80.1185 254.32C80.5535 253.812 80.9884 253.304 81.4234 252.796C80.9916 253.307 80.7777 253.564 80.781 253.566C81.3405 254.045 81.9381 254.428 82.5749 254.737C88.4037 257.559 93.8133 253.497 97.7828 252.254C102.839 250.688 110.527 249.863 115.352 244.784C115.469 244.622 115.566 244.486 115.656 244.298C115.862 243.905 115.954 243.347 115.46 243.058C115.738 243.109 115.973 243.278 116.1 243.572C116.217 243.822 116.242 244.145 116.241 244.424C116.233 244.68 116.217 244.877 116.18 245.111C114.127 252.458 109.071 259.967 100.779 262.599C93.5276 264.803 86.1286 259.189 82.3728 255.025C81.8559 254.525 81.3405 254.045 80.781 253.566C80.7777 253.564 80.557 253.815 80.1185 254.32Z" fill="#096B0E"/>
<path d="M76.5894 272.654C77.2217 272.436 77.854 272.218 78.4863 272C77.8554 272.222 77.5408 272.335 77.5422 272.339C77.7825 273.035 78.1038 273.668 78.4967 274.257C82.0943 279.642 88.816 278.877 92.8686 279.815C98.0214 281.024 105.069 284.205 111.801 282.268C111.984 282.187 112.137 282.12 112.31 282.003C112.687 281.769 113.048 281.334 112.769 280.834C112.982 281.019 113.1 281.283 113.06 281.601C113.035 281.876 112.892 282.168 112.751 282.407C112.614 282.624 112.501 282.786 112.35 282.969C106.86 288.265 98.6983 292.181 90.2155 290.253C82.8459 288.482 79.3074 279.895 78.1763 274.403C77.9839 273.71 77.7826 273.035 77.5422 272.339C77.5408 272.335 77.2232 272.44 76.5894 272.654Z" fill="#096B0E"/>
<path d="M80.8282 295.369C81.1135 294.764 81.3987 294.159 81.684 293.554C81.4025 294.161 81.2641 294.465 81.2681 294.467C81.9341 294.781 82.6117 294.992 83.3075 295.122C89.6749 296.304 93.8189 290.957 97.3188 288.709C101.781 285.863 108.978 283.035 112.29 276.863C112.359 276.675 112.417 276.519 112.455 276.313C112.55 275.88 112.491 275.318 111.938 275.169C112.219 275.145 112.491 275.245 112.691 275.496C112.87 275.706 112.979 276.011 113.052 276.28C113.112 276.529 113.149 276.723 113.174 276.959C113.136 284.587 110.244 293.165 102.942 297.894C96.5306 301.936 87.9111 298.477 83.1887 295.454C82.5579 295.107 81.934 294.78 81.2681 294.467C81.2641 294.465 81.1176 294.766 80.8282 295.369Z" fill="#096B0E"/>
<path d="M155.412 146.366C154.248 146.34 153.133 146.395 151.976 146.537C148.028 147.016 144.172 148.498 140.55 150.642C132.159 155.171 122.053 165.038 122.543 176.883C122.831 185.938 128.413 194.541 136.579 198.243C137.846 198.834 139.15 199.29 140.505 199.647C140.388 198.25 140.329 196.932 140.285 195.65C140.09 187.433 140.801 181.678 140.53 176.182C140.253 169.761 136.472 160.274 142.459 152.957C144.878 150.093 148.374 148.166 152.093 147.117C153.189 146.805 154.265 146.564 155.412 146.366Z" fill="#096B0E"/>
<path d="M198.319 378.623C198.44 379.874 198.56 381.126 198.681 382.377C198.693 382.375 198.704 382.374 198.716 382.373C199.795 382.269 200.859 382.582 201.976 383.092C204.274 384.129 206.63 386.003 208.962 386.924C212.917 388.521 217.161 391.853 220.651 391.412C229.913 390.215 236.334 380.709 247.245 382.875C250.522 383.46 253.571 384.848 256.576 386.265C257.557 386.731 258.471 387.161 259.479 387.629C258.635 386.906 257.85 386.266 256.984 385.599C254.328 383.55 251.564 381.661 248.831 379.455C241.865 372.471 227.493 362.923 217.28 364.623C213.462 365.107 210.436 369.457 207.1 371.957C205.141 373.412 203.348 375.771 201.355 377.265C200.389 377.998 199.421 378.517 198.354 378.62C198.342 378.621 198.331 378.622 198.319 378.623Z" fill="#0D5741"/>
<path d="M184.488 371.906C185.389 373.274 186.291 374.642 187.192 376.01C187.205 376.002 187.217 375.993 187.23 375.985C188.384 375.224 189.847 374.96 191.468 374.886C194.807 374.71 198.893 375.248 201.93 374.232C207.437 372.41 213.695 370.599 217.515 366.263C227.236 355.218 226.086 337.72 226.671 325.039C226.928 320.524 227.423 316.278 227.122 311.906C226.949 310.604 227.005 308.953 226 308C226.626 309.094 226.213 310.612 226.074 311.869C225.389 316.015 224.09 319.974 221.958 323.644C215.495 334.604 201.587 338.977 195.006 346.43C192.281 349.521 191.409 354.618 189.315 359.154C188.2 361.613 188.001 365.457 186.885 368.457C186.366 369.908 185.63 371.153 184.524 371.882C184.512 371.89 184.5 371.898 184.488 371.906Z" fill="#096B0E"/>
<circle cx="172.12" cy="354.68" r="12.12" fill="#A21010"/>
<circle cx="176.16" cy="378.92" r="12.12" fill="#A21010"/>
<circle cx="196.36" cy="382.96" r="12.12" fill="#A21010"/>
<circle cx="101.109" cy="284.121" r="9.10876" fill="#A21010"/>
<circle cx="116.891" cy="289.382" r="9.10876" fill="#A21010"/>
<circle cx="188.28" cy="346.6" r="12.12" fill="#B80B0B"/>
<circle cx="200.4" cy="366.8" r="12.12" fill="#B80B0B"/>
<circle cx="184.24" cy="362.76" r="12.12" fill="#E70000"/>
<circle cx="110.127" cy="278.109" r="9.10876" fill="#E70000"/>
<path d="M115.673 246.225C114.186 246.42 112.816 246.658 111.479 246.889C103.018 248.364 97.5016 250.203 92.408 251.224C85.1991 252.581 73.9314 254.376 68.0906 264.023C66.8393 266.184 66.0018 268.617 65.6988 271.186C65.5629 272.352 65.5384 273.541 65.6411 274.743C65.1369 273.647 64.7616 272.469 64.505 271.247C63.937 268.546 63.9414 265.686 64.2761 262.819C65.4434 250.844 73.5961 235.804 88.5906 232.674C98.2105 230.604 108.237 234.953 113.416 242.452C114.268 243.641 114.993 244.888 115.673 246.225Z" fill="#0D5741"/>
<path d="M61.2478 387L136.234 191.868H153.517L228.504 387H208.154L173.588 295.567H110.31L81.5972 387H61.2478ZM138.186 206.364L112.261 288.876H171.079L139.858 206.364H138.186Z" fill="#533E0B"/>
<path d="M821.651 384.876C822.217 384.292 822.783 383.708 823.349 383.124C823.339 383.115 823.33 383.106 823.32 383.096C822.453 382.256 821.813 381.214 821.297 380.094C820.295 377.862 819.569 375.058 818.518 372.981C815.34 366.903 813.611 360.026 810.145 355.021C805.873 348.785 795.687 345.454 792.491 337.278C791.183 333.826 790.778 330.079 791.319 326.429C791.454 325.288 791.902 324.041 792.055 323.023C791.722 323.963 791.118 325.186 790.838 326.327C789.844 329.999 789.903 333.858 790.101 337.769C790.477 346.424 788.7 358.299 794.099 366.133C798.321 372.22 805.35 375.809 811.372 379.628C813.454 380.922 816.296 381.809 818.553 382.835C819.688 383.368 820.746 383.999 821.622 384.848C821.632 384.857 821.641 384.867 821.651 384.876Z" fill="#096B0E"/>
<path d="M894.738 193.333C894.579 192.536 894.421 191.738 894.262 190.941C894.252 190.943 894.241 190.945 894.231 190.947C893.281 191.135 892.301 191.005 891.351 190.71C889.317 190.122 887.414 188.842 885.705 188.22C880.664 186.449 877.576 182.51 874.406 180.808C870.561 178.942 861.076 179.474 855.626 174.533C853.295 172.516 851.165 170.213 848.859 168.205C848.145 167.595 847.394 167.011 846.582 166.546C846.555 166.531 846.729 166.162 847.092 165.434C846.697 166.145 846.303 166.855 845.908 167.566C846.326 166.868 846.555 166.531 846.582 166.546C847.395 167.011 848.118 167.636 848.76 168.309C850.839 170.533 852.294 173.265 853.696 176.025C856.667 182.118 856.671 193.387 865.256 198.049C871.81 201.563 879.864 199.927 885.827 197.978C888.011 197.306 889.984 195.702 891.901 194.55C892.801 193.989 893.715 193.536 894.705 193.34C894.716 193.338 894.727 193.336 894.738 193.333Z" fill="#096B0E"/>
<path d="M881.914 189.923C881.193 190.299 880.471 190.675 879.75 191.05C879.755 191.059 879.759 191.068 879.764 191.077C880.193 191.902 880.338 192.852 880.329 193.833C880.34 195.891 879.715 198.085 879.707 199.918C879.732 205.227 877.629 210.14 877.8 214.178C878.042 219.011 884.266 225.909 882.45 232.754C881.703 235.568 880.239 238.126 878.462 240.437C877.886 241.182 877.287 241.889 876.644 242.568C877.415 242.038 878.134 241.428 878.827 240.765C880.979 238.696 882.749 236.293 884.633 233.843C888.833 228.65 897.665 221.942 897.299 213.331C897.009 206.749 892.532 201.208 888.859 196.531C887.55 194.85 885.459 193.574 883.836 192.176C883.051 191.513 882.371 190.803 881.928 189.951C881.924 189.942 881.919 189.932 881.914 189.923Z" fill="#096B0E"/>
<path d="M844.802 387.124C844.663 385.876 844.523 384.629 844.384 383.381C844.47 384.299 844.504 384.759 844.488 384.761C842.97 384.93 841.441 384.735 839.934 384.306C835.495 383.07 831.376 379.865 827.589 377.9C821.021 374.557 816.162 368.401 810.518 366.325C802.395 363.35 788.193 368.14 778.502 362.189C774.474 359.662 770.955 356.325 768.544 352.246C767.867 350.968 767.069 349.466 767.612 348.018C766.758 349.371 767.342 351.155 767.858 352.568C769.775 357.177 772.974 360.921 775.95 364.958C782.491 373.849 787.635 389.957 800.114 394.6C808.328 397.626 817.98 394.823 826.147 392.895C831.072 391.768 835.75 388.727 840.09 386.978C841.585 386.374 843.064 385.925 844.598 385.755C844.615 385.753 844.682 386.209 844.802 387.124Z" fill="#096B0E"/>
<path d="M875.124 191.621C875.041 192.874 874.959 194.126 874.876 195.379C874.891 195.38 874.906 195.381 874.921 195.382C876.289 195.473 877.548 196.18 878.684 197.139C881.095 199.114 882.713 202.076 884.716 203.183C890.456 206.349 894.668 211.104 898.729 216.258C903.812 222.689 910.815 229.652 915.398 238.519C917.385 242.37 919.372 246.348 921.062 250.504C921.582 251.784 922.138 253.162 922.5 254.5C922.78 253.113 922.883 251.62 923.024 250.213C923.407 245.647 923.506 240.993 923.096 236.343C922.178 225.877 921.029 213.956 913.653 204.5C907.927 197.14 899.24 191.528 890.064 189.101C886.757 188.193 882.939 189.727 879.696 190.798C878.115 191.324 876.649 191.724 875.172 191.624C875.156 191.623 875.14 191.622 875.124 191.621Z" fill="#096B0E"/>
<path d="M822.335 384.792C822.45 385.597 822.565 386.402 822.68 387.208C822.69 387.206 822.701 387.205 822.711 387.203C823.656 387.068 824.625 387.249 825.569 387.588C827.547 388.273 829.419 389.62 831.173 390.277C836.226 392.135 840.087 395.937 844.107 397.333C849 398.986 857.955 395.881 864.132 399.634C866.732 401.199 869.088 403.147 871.103 405.404C871.74 406.096 872.286 406.859 872.928 407.52C872.959 407.532 872.812 407.597 872.916 407.839C872.961 407.955 873.218 408.084 873.506 407.984C873.786 407.893 874.002 407.728 874.216 407.594C873.405 407.531 872.595 407.469 871.784 407.406C871.996 407.301 872.205 407.157 872.474 407.079C872.751 406.992 872.992 407.125 873.017 407.238C873.063 407.463 872.919 407.522 872.928 407.52C872.286 406.859 871.779 406.066 871.215 405.313C869.437 402.858 867.672 400.366 865.776 397.831C861.75 392.258 858.691 381.752 850.494 378.889C844.204 376.704 837.111 378.729 831.244 380.518C829.116 381.146 827.124 382.67 825.201 383.726C824.277 384.243 823.349 384.648 822.367 384.788C822.356 384.789 822.345 384.791 822.335 384.792Z" fill="#096B0E"/>
<ellipse cx="856.5" cy="290" rx="7.5" ry="7" fill="#A21010"/>
<ellipse cx="865.5" cy="304" rx="7.5" ry="7" fill="#A21010"/>
<ellipse cx="827.5" cy="379" rx="7.5" ry="7" fill="#A21010"/>
<ellipse cx="867.5" cy="292" rx="7.5" ry="7" fill="#E70000"/>
<ellipse cx="879.5" cy="298" rx="7.5" ry="7" fill="#A21010"/>
<ellipse cx="815.5" cy="376" rx="7.5" ry="7" fill="#E70000"/>
<ellipse cx="892.5" cy="197" rx="7.5" ry="7" fill="#A21010"/>
<ellipse cx="880.5" cy="194" rx="7.5" ry="7" fill="#E70000"/>
</svg>
